# xmcd CD database file
#
# Track frame offsets:
#	150
#	13444
#	37146
#	71806
#	106477
#	148954
#	184336
#	233834
#
# Disc length: 3813 seconds
#
# Revision: 0
# Processed by: cddbd v1.5.2PL0 Copyright (c) Steve Scherf et al.
# Submitted via: CDex 1.70beta2
#
DISCID=7f0ee308
DTITLE=Thelonius Monk - Round Midnight
DYEAR=2007
DGENRE=Jazz
TTITLE0=Straigtht No Casher
TTITLE1='Round Midnight
TTITLE2=Blue Monk
TTITLE3=Bemsha Swing
TTITLE4=Misterioso
TTITLE5=Monk' s Mood
TTITLE6=Epistrophy
TTITLE7=Well You Needn' t
EXTD=YEAR: 2007
EXTT0=
EXTT1=
EXTT2=
EXTT3=
EXTT4=
EXTT5=
EXTT6=
EXTT7=
PLAYORDER=
